{"title":"Shameless US Season 06 S06 Web-DL 1080p 10bit 5.1 x265 HEVC-Qma","uid":14431729,"size":9841547221,"categoryP":"video","categoryS":"hd___tv_shows","magnet":"?xt=urn:btih:325394812c10c7591d862d9c6893e2386cb52e53&amp;dn=+Shameless+US+Season+06+S06+Web-DL+1080p+10bit+5.1+x265+HEVC-Qma&amp;tr=udp%3A%2F%2Ftracker.leechers-paradise.org%3A6969&amp;tr=udp%3A%2F%2Fzer0day.ch%3A1337&amp;tr=udp%3A%2F%2Fopen.demonii.com%3A1337&amp;tr=udp%3A%2F%2Ftracker.coppersurfer.tk%3A6969&amp;tr=udp%3A%2F%2Fexodus.desync.com%3A6969","seeders":27,"leechers":15,"uploader":"sjopk","files":12,"time":1461615179,"description":"Not mine, just a mirror\r\n\r\noriginal description:\r\n\r\n\r\n\r\n\r\nFormat : Matroska\r\nFormat version : Version 4 / Version 2\r\nFile size : 884 MiB\r\nDuration : 56mn 54s\r\nOverall bit rate : 2 171 Kbps\r\nEncoded date : UTC 2016-02-23 15:46:12\r\nWriting application : mkvmerge v8.9.0 ('Father Daughter') 64bit\r\nWriting library : libebml v1.3.3 + libmatroska v1.4.4\r\n\r\nVideo\r\nID : 1\r\nFormat : HEVC\r\nFormat/Info : High Efficiency Video Coding\r\nFormat profile : Main   @Main\r\nCodec ID : V_MPEGH/ISO/HEVC\r\nDuration : 56mn 54s\r\nBit rate : 1 918 Kbps\r\nWidth : 1 916 pixels\r\nHeight : 1 076 pixels\r\nDisplay aspect ratio : 16:9\r\nFrame rate mode : Constant\r\nFrame rate : 23.976 (24000/1001) fps\r\nColor space : YUV\r\nChroma subsampling : 4:2:0\r\nBit depth : 10 bits\r\nBits/(Pixel*Frame) : 0.039\r\nStream size : 781 MiB (88%)\r\nWriting library : x265 1.9+3-548a45bbf223:[Windows][MSVC 1900][64 bit] 10bit\r\nEncoding settings : wpp / ctu=64 / min-cu-size=8 / max-tu-size=32 / tu-intra-depth=1 / tu-inter-depth=1 / me=3 / subme=2 / merange=57 / no-rect / no-amp / max-merge=2 / temporal-mvp / no-early-skip / rdpenalty=0 / no-tskip / no-tskip-fast / no-strong-intra-smoothing / no-lossless / no-cu-lossless / no-constrained-intra / no-fast-intra / open-gop / no-temporal-layers / interlace=0 / keyint=250 / min-keyint=23 / scenecut=40 / rc-lookahead=20 / lookahead-slices=6 / bframes=4 / bframe-bias=0 / b-adapt=2 / ref=3 / limit-refs=3 / no-limit-modes / weightp / no-weightb / aq-mode=3 / qg-size=32 / aq-strength=1.00 / cbqpoffs=0 / crqpoffs=0 / rd=3 / psy-rd=0.35 / rdoq-level=1 / psy-rdoq=0.00 / no-rd-refine / signhide / deblock=-1:-1 / sao / no-sao-non-deblock / b-pyramid / cutree / no-intra-refresh / rc=crf / crf=24.0 / qcomp=0.60 / qpmin=0 / qpmax=51 / qpstep=4 / ipratio=1.40 / pbratio=1.30\r\nLanguage : English\r\nDefault : Yes\r\nForced : No\r\n\r\nAudio\r\nID : 2\r\nFormat : AAC\r\nFormat/Info : Advanced Audio Codec\r\nFormat profile : LC\r\nCodec ID : A_AAC\r\nDuration : 56mn 54s\r\nBit rate : 251 Kbps\r\nChannel(s) : 6 channels\r\nChannel positions : Front: L C R, Side: L R, LFE\r\nSampling rate : 48.0 KHz\r\nFrame rate : 46.875 fps (1024 spf)\r\nCompression mode : Lossy\r\nDelay relative to video : 9ms\r\nStream size : 102 MiB (12%)\r\nLanguage : English\r\nDefault : Yes\r\nForced : No\r\n\r\nTake a seed, leave a seed please","torrent":{"xt":"urn:btih:325394812c10c7591d862d9c6893e2386cb52e53","amp;dn":"+Shameless+US+Season+06+S06+Web-DL+1080p+10bit+5.1+x265+HEVC-Qma","amp;tr":["udp%3A%2F%2Ftracker.leechers-paradise.org%3A6969","udp%3A%2F%2Fzer0day.ch%3A1337","udp%3A%2F%2Fopen.demonii.com%3A1337","udp%3A%2F%2Ftracker.coppersurfer.tk%3A6969","udp%3A%2F%2Fexodus.desync.com%3A6969"],"infoHash":"325394812c10c7591d862d9c6893e2386cb52e53","infoHashBuffer":{"type":"Buffer","data":[50,83,148,129,44,16,199,89,29,134,45,156,104,147,226,56,108,181,46,83]},"announce":[],"urlList":[]}}